<svg width="1558" height="1237" viewBox="0 0 1558 1237" fill="none" xmlns="http://www.w3.org/2000/svg">
<g clip-path="url(#clip0_7623_490)">
<path d="M-154 836.5C37.5 471.5 467.5 921 651 786C995.231 532.751 1579 405.5 1579 238" stroke="#B7BDF3" stroke-width="3"/>
<path d="M-154 882.5C122 587 330 1011.5 680.5 767C1031 522.5 1579 557 1579 284" stroke="#B7BDF3" stroke-width="4"/>
<path d="M-154 932.5C55.5 735 324 1016.5 674.5 772C1025 527.5 1579 686 1579 334" stroke="#B7BDF3"/>
<path d="M-48.2953 1163.48C299.264 1385.06 449.049 781.31 675.374 807.277C1099.94 855.988 1669.77 676.328 1753 821.683" stroke="#B7BDF3" stroke-width="3"/>
<path d="M-71.1539 1123.56C315.198 1242.84 284.756 771.101 710.415 809.105C1136.08 847.11 1594.48 544.857 1730.14 781.765" stroke="#B7BDF3" stroke-width="4"/>
<path d="M-95.9999 1080.17C183.945 1147.45 277.064 769.744 702.724 807.748C1128.38 845.752 1530.38 432.911 1705.3 738.375" stroke="#B7BDF3"/>
</g>
<defs>
<clipPath id="clip0_7623_490">
<rect width="1558" height="1237" fill="white"/>
</clipPath>
</defs>
</svg>
